<?xml version="1.0" encoding="utf-8"?>
<!-- Generator: Adobe Illustrator 21.0.2, SVG Export Plug-In . SVG Version: 6.00 Build 0)  -->
<svg version="1.1" id="Layer_1" xmlns="http://www.w3.org/2000/svg" xmlns:xlink="http://www.w3.org/1999/xlink" x="0px" y="0px"
	 viewBox="0 0 2388.8 805" style="enable-background:new 0 0 2388.8 805;" xml:space="preserve">
<style type="text/css">
	.st0{fill:#FBFAFA;}
	.st1{fill:#474747;}
	.st2{fill:#E92030;}
	.st3{font-family:'ModernSans';}
	.st4{font-size:264.2015px;}
	.st5{fill:#C0203A;}
	.st6{font-family:'PTSans-Regular';}
	.st7{fill:#FFFFFF;}
	.st8{font-size:180px;}
	.st9{fill:#D3D4D6;}
	.st10{font-size:52px;}
</style>
<g id="layer1">
	<path class="st0" d="M389.8,708.8c-5-2.3-40.9-20.1-42.3-21c-2.5-1.6-14.3-8.3-15.5-8.9c-1.6-0.8-3.5-1.9-8.4-5.2
		c-2.1-1.3-3.9-2.3-4.2-2.3c-0.3,0-2-1.1-3.8-2.6c-1.8-1.4-3.5-2.6-3.8-2.6c-0.3,0-3.5-2.1-7-4.5c-3.6-2.5-7.3-4.9-8-5.4
		c-5.3-3-32.7-24.4-39.9-31.1c-2.2-2-6.8-6.2-10.4-9.5c-3.5-3.2-7.4-6.9-8.6-8.1c-2.9-3.1-14.3-15.3-18.1-19.5
		c-5.2-5.7-24.2-31.5-24.2-32.8c0-0.2-1.2-2.2-2.8-4.4c-3.5-5.1-14.3-26.4-17.4-34.5c-1.3-3.3-2.8-6.5-3.1-6.9
		c-0.7-0.9-11.6-33.4-14.3-42.8c-4-13.7-6.8-25.3-10.2-41.9c-3.4-16.2-5.7-28.5-6.2-32.8c-0.3-1.9-1-6.6-1.6-10.4
		c-1.5-8.4-3.4-22.7-5.2-38.9c-0.8-6.7-1.7-15.4-2.2-19.4c-0.4-4.1-1.2-14-1.6-22.1c-0.4-8.1-1.2-18.4-1.6-22.9
		c-2.7-26.8-3.5-137.1-1-140.2c0.6-0.7,2.9-1.6,5.1-1.8c2.2-0.3,7.3-1,11.4-1.7c4.1-0.7,11.1-1.9,15.5-2.6
		c4.5-0.8,11.3-1.9,15.1-2.5c3.8-0.7,10.6-1.8,15.1-2.6c13.5-2.2,23.8-3.9,32-5.3c4.3-0.7,11.2-1.9,15.5-2.6
		c4.3-0.7,11.3-1.9,15.5-2.6c4.3-0.7,11.4-1.9,15.8-2.6c4.3-0.8,11.2-1.9,15.3-2.6s11-1.8,15.3-2.6c4.4-0.7,11.7-1.9,16.1-2.7
		c14.3-2.3,23.3-3.9,30.8-5.1c17.6-2.9,25-4.1,31.5-5.4c3.8-0.8,10.6-1.4,15.1-1.4s11.3,0.6,15.1,1.4c3.8,0.7,10.8,2,15.5,2.8
		c9.3,1.6,20,3.3,31.1,5.2c3.8,0.6,10.8,1.8,15.5,2.6c4.8,0.8,11.7,1.9,15.5,2.6c3.8,0.7,9.1,1.5,11.7,1.7c2.6,0.3,6.1,0.9,7.8,1.3
		c1.6,0.3,6.9,1.4,11.7,2.2c4.8,0.8,11.7,1.9,15.5,2.6c3.8,0.6,10.8,1.8,15.5,2.6c4.8,0.8,11.7,1.9,15.5,2.6
		c3.8,0.6,10.8,1.8,15.5,2.6c4.8,0.8,11.7,1.9,15.5,2.6c3.8,0.6,10.8,1.8,15.5,2.6c4.8,0.8,11.7,1.9,15.5,2.6
		c10.2,1.7,22.7,3.8,27.6,4.5l4.3,0.7l0.8,20.7c0.8,22.5-0.5,101.6-2.1,120.5c-1.1,14.4-2.5,29.6-4,45.3c-0.7,7.2-1.6,17.3-2.1,22.5
		c-0.5,5.3-1.3,11.4-1.7,13.6c-0.5,2.2-0.9,5.4-0.9,6.9c0,1.6-0.6,6.3-1.4,10.5c-0.7,4.3-1.9,11.3-2.6,15.5
		c-4,24.4-10.7,55.1-15.5,70.5c-0.6,2.2-1.2,4.7-1.2,5.4c0,0.7-0.5,2.6-1.2,4.1c-0.6,1.6-3,8.7-5.4,15.8c-2.2,7.2-4.6,13.9-5.2,15.1
		c-0.5,1.2-1.6,3.9-2.5,6c-2.6,7-13.4,29.5-17.9,37.6c-4.1,7.3-15.5,23.7-22.8,32.8c-9.3,11.7-38.3,41-48.5,49.2
		c-4.1,3.4-7.9,6.5-8.4,7c-2,2.2-25.8,19.5-36.7,26.6c-6.4,4.2-12.7,8.4-14,9.2c-1.3,1-2.6,1.6-2.9,1.6s-2.1,1-4.1,2.3
		c-2,1.3-4.3,2.8-5.1,3.3c-3.3,2-14.9,8.3-23.1,12.7c-3.5,1.8-7.1,3.7-7.8,4.1c-0.7,0.4-6.3,3.2-12.5,6c-6.1,2.9-12.3,5.8-13.6,6.5
		C393,710.5,393.6,710.5,389.8,708.8z M404,669.2c6.2-3.1,13.6-7,16.5-8.6c12.4-6.7,14-7.6,16.4-9.2c1.5-0.9,3.2-1.9,3.9-2.2
		c2.2-1,14.9-9.2,32.4-21c22.3-15,55.9-45.1,69.1-61.8c1.8-2.3,3.8-4.7,4.2-5.2c2.8-2.6,16-21.4,20.1-28.5
		c1.5-2.6,13.2-26.4,14.2-28.7c0.4-1.1,1.1-2.9,1.6-3.9c0.5-1.1,1.7-4.1,2.7-6.7c1-2.6,2.3-5.7,2.8-6.9c0.5-1.2,1.2-3.3,1.6-4.8
		c0.7-2.4,1.4-4.7,3.9-11.7c0.6-1.6,1.8-5.5,2.6-8.6c0.9-3.1,2-7.3,2.6-9.5c2.9-9.6,7.2-28.5,10.3-44.5c0.7-3.8,1.7-9.2,2.3-12.1
		c0.5-2.9,1.6-8.5,2.2-12.5c0.6-4.1,1.5-9.5,2-12.1c2.6-15.5,6.9-59.2,9.2-93.7c1.6-25.3,3.2-90.8,2.5-103.1l-0.6-9.5l-4.4-0.5
		c-2.4-0.3-7.7-1.1-11.7-1.8c-10.5-1.8-20.7-3.5-30.2-5.1c-4.5-0.7-11.5-1.9-15.5-2.6c-12.9-2.2-25.7-4.3-47.5-7.9
		c-4.5-0.8-11.3-1.9-15.1-2.5c-3.8-0.7-10.8-1.8-15.5-2.6c-4.8-0.8-11.7-2-15.5-2.6c-3.8-0.7-10.8-1.8-15.5-2.6
		c-4.8-0.8-11.7-2-15.5-2.6c-3.8-0.7-10.8-1.8-15.5-2.6c-4.8-0.8-11.7-2.1-15.5-2.8c-9.2-1.8-21.7-1.9-30.7-0.1
		c-4.1,0.8-11.2,2.1-16,2.9c-17.8,2.8-25.1,4.1-28.9,4.8c-2.2,0.4-6.7,1.2-10.3,1.6c-3.5,0.5-6.7,1.1-7.1,1.4
		c-0.4,0.3-4.8,1-9.6,1.6c-14.3,1.9-21.6,3-26.2,3.9c-2.3,0.4-7.6,1.4-11.7,2.1c-6.9,1.3-11.5,2.1-32,5.4
		c-4.5,0.8-11.3,1.9-15.1,2.5c-3.8,0.7-10.8,1.8-15.5,2.6s-11.7,2-15.5,2.6c-3.8,0.7-10.8,1.8-15.5,2.6s-10.2,1.7-12.1,2l-3.5,0.6
		v32c0,90.6,9.2,179.4,25.1,242.3c1.2,5,2.6,10.5,3,12.1c1.3,5.7,2.8,10.8,3.8,13.8c0.6,1.6,2.3,7.1,4,12.1c1.6,5,3.4,10,4,11.2
		c0.6,1.2,1.1,2.7,1.1,3.3c0,0.6,0.3,1.7,0.9,2.6c0.4,0.8,2.2,5,4,9.2c8.6,21.4,21.7,42.7,38.3,62.6c6.6,7.9,32,33.1,39.8,39.3
		c4.1,3.2,7.5,6.1,7.8,6.5c0.9,1.1,21.3,16.2,28.9,21.3c11.1,7.3,20.1,13.2,20.6,13.2c0.3,0,2.1,1.1,4.1,2.5
		c3.4,2.2,9.3,5.7,17.1,9.8c3.7,2.1,30.6,15.9,31,16.1C392.4,674.7,397.7,672.3,404,669.2z"/>
</g>
<g id="layer2">
	<path class="st1" d="M388.1,748.5c-1.2-0.2-2.5-0.8-2.9-1.2c-0.5-0.4-1.5-0.8-2.2-0.8c-0.8,0-3.7-1.1-6.6-2.5
		c-2.9-1.4-7.9-3.7-11.2-5.3c-3.3-1.5-6.7-3.1-7.3-3.5c-0.7-0.4-1.9-1-2.6-1.3c-0.7-0.3-1.6-0.7-2.2-0.9c-0.4-0.2-1.5-0.7-2.2-1.1
		c-0.7-0.4-1.9-1-2.6-1.3c-0.7-0.3-2-0.9-2.9-1.4c-0.8-0.4-2.2-1.3-3-1.7c-0.8-0.5-2.3-1.2-3.4-1.7c-1-0.4-3.4-1.7-5.2-2.9
		c-1.8-1.1-4.2-2.4-5.4-2.8s-3.3-1.5-4.8-2.5c-1.4-1.1-3.2-2.2-3.9-2.5c-0.7-0.3-2.4-1.4-3.9-2.3c-1.4-1-3.4-2.1-4.3-2.5
		c-1-0.4-3.2-1.8-5-3c-1.8-1.2-4.8-3-6.5-4c-4.2-2.3-6-3.5-9.7-6.1c-1.6-1.2-3.6-2.5-4.3-2.8c-2.1-1-10.5-6.7-16.1-11
		c-2.9-2.1-7-5.2-9.4-6.8c-2.3-1.6-4.7-3.4-5.2-3.9c-0.4-0.5-3.4-2.9-6.5-5.2c-3.1-2.3-6-4.7-6.5-5.2c-0.4-0.5-4.1-3.7-8.2-7.2
		c-8-6.8-14.5-12.4-16.2-14.3c-0.6-0.6-3.2-3.3-5.8-6c-2.6-2.7-5.2-5.2-5.9-5.6c-0.7-0.3-3.2-3-5.5-5.9c-2.4-2.9-6.1-7-8.4-9.2
		c-2.2-2.3-3.7-4.1-3.5-4.1c0.3,0-1.6-2.5-4.3-5.5c-2.7-3-4.8-5.9-4.8-6.3c0-0.4-1.1-2-2.6-3.4c-1.4-1.4-2.6-2.9-2.6-3.4
		c0-0.5-0.8-1.4-1.7-2c-1-0.5-2.2-2.3-3-3.9c-1.6-3.3-2.7-5.2-5.8-9.3c-1.4-1.7-2.4-3.5-2.4-3.8c0-0.3-1-1.8-2.1-3.3
		c-1.2-1.6-2.4-3.8-2.7-5.2c-0.3-1.3-1-2.6-1.5-2.9c-0.4-0.3-1.1-1.4-1.6-2.3c-0.8-1.9-1.3-2.9-3.2-6.2c-0.6-1-1.3-2.3-1.6-3
		s-0.9-1.9-1.3-2.6c-0.4-0.7-1.1-2.1-1.6-3c-0.4-1-1.6-3.5-2.6-5.6c-1-2.2-2.3-5.4-3-7.3c-0.7-1.9-2.7-6.7-4.3-10.8
		c-1.7-4-3.1-7.9-3.1-8.6c0-0.8-0.4-1.8-1-2.3c-0.5-0.5-1.2-2.2-1.6-3.8c-0.8-3.3-2.3-7.6-4.1-11.7c-0.6-1.5-1.1-3.6-1.1-4.8
		s-0.3-2.4-0.8-2.9c-0.8-0.7-1.4-2.6-3.9-12.9c-0.6-2.3-1.4-4.9-1.6-5.6c-0.3-0.7-1-3-1.5-5.2c-0.4-2.2-1.5-6.4-2.2-9.5
		c-0.7-3.1-1.9-8.1-2.5-11.2c-0.7-3.1-1.6-6.7-2.1-8c-0.5-1.4-1-3.9-1-5.7c0-1.7-0.3-3.5-0.8-4c-0.4-0.5-1.2-3.5-1.6-6.9
		c-1.9-13.2-2.9-19.2-3.7-22c-0.9-3.1-1.7-9.3-3.4-24.6c-0.5-4.8-1.3-9.8-1.7-11.2c-0.4-1.4-1-6.5-1.3-11.2
		c-0.3-4.8-0.9-10.2-1.4-12.1c-0.4-1.9-1.2-8.9-1.6-15.5c-0.5-6.7-1.2-15.8-1.6-20.3c-2.7-28.7-3.5-186.3-1-192.9
		c0.8-1.9,1.5-2.3,4-2.3c1.7,0,3.9-0.4,4.8-0.9c1-0.5,4.8-1.3,8.4-1.7c7.8-1,16.3-2.2,21.9-3.5c2.2-0.5,6.4-1.2,9.5-1.6
		c3.1-0.5,8.9-1.4,13-2.1c4.1-0.8,9.8-1.7,13-2.2c3.1-0.5,8.9-1.6,13-2.2c11.3-1.9,12.9-2.2,20.7-3.4c4.1-0.6,7.9-1.4,8.6-1.6
		c0.7-0.3,4.1-1,7.3-1.5c3.4-0.4,9.6-1.4,13.8-2.2c4.3-0.7,10.3-1.6,13.4-2.2c3.1-0.5,7.3-1.3,9.5-1.7c2.2-0.5,6.4-1.2,9.5-1.6
		c3.1-0.5,9.2-1.5,13.4-2.2c4.3-0.8,11.3-2,15.5-2.6c4.3-0.7,8.4-1.5,9.1-1.7c0.7-0.3,4.1-0.9,7.3-1.4c3.4-0.4,9.6-1.4,13.8-2.2
		c4.3-0.7,10.3-1.6,13.4-2.2c3.1-0.5,7.3-1.3,9.4-1.7c2.1-0.5,6.1-1.1,9.1-1.5c2.9-0.3,6-0.9,6.9-1.3c1.6-0.9,7.9-1.7,24.3-3.3
		c10-1,31.9,0.8,41,3.4c3,0.8,10.8,2.1,21.6,3.5c3.1,0.4,7,1.2,8.6,1.6c2.9,0.8,9.8,1.9,22,3.5c3.4,0.4,7.4,1.1,9.1,1.6
		c3.1,0.9,10.8,2.2,21.1,3.5c3.3,0.4,6.6,1,7.3,1.4c0.8,0.3,3.9,0.9,7,1.3c3.1,0.4,6.4,1,7.3,1.2c1,0.2,4.3,0.7,7.5,1.1
		c3.2,0.5,7.7,1.3,9.9,1.8c4.6,1,13.1,2.4,21.9,3.6c3.1,0.4,7.3,1.1,9.5,1.6c4.7,1,13.3,2.4,20.3,3.4c2.9,0.3,7.2,1.1,9.5,1.6
		c5.1,1.2,13.3,2.5,21.4,3.6c3.3,0.4,7.2,1.1,8.6,1.6c1.6,0.4,5.3,1,8.4,1.4c3.1,0.3,6.8,0.9,8.2,1.3c1.5,0.4,5.4,1.1,8.6,1.7
		c3.4,0.5,8.4,1.3,11.2,1.7s6.1,1,7.3,1.4c1.2,0.3,4.5,0.8,7.3,1l5.2,0.6l0.5,17.7c0.9,28.1,0.7,106.7-0.2,135.2
		c-0.5,14.3-0.9,28.9-0.8,32.6c0.1,3.7-0.3,7.2-0.7,7.8c-0.4,0.6-1,6.5-1.3,13.1c-0.3,6.7-0.9,13.3-1.4,14.7
		c-0.4,1.5-1,6.7-1.4,11.9c-0.3,5.1-0.9,10.3-1.3,11.5c-0.5,1.2-0.9,4.2-1,6.7c0,2.5-0.4,6.5-0.9,8.8c-0.4,2.4-1.1,7.5-1.6,11.5
		c-0.4,4-1.2,9-1.7,11.2c-0.8,3.7-1.4,7.3-3.5,21c-0.4,2.7-1.1,6.8-1.6,9.1c-0.5,2.3-1.6,7.3-2.3,11.1c-0.8,3.8-1.8,8.5-2.3,10.4
		c-0.4,1.9-1.1,5.3-1.6,7.6c-0.4,2.2-1.1,5.4-1.6,6.9c-1.6,5.1-2.9,10.5-3.5,14c-0.4,1.9-1.1,4.7-1.6,6c-2.8,7.9-6.2,19.4-6.2,20.8
		c0,0.9-0.6,2.8-1.3,4.1c-0.7,1.3-1.3,3-1.3,3.7s-0.5,2.3-1.2,3.5c-1.5,2.9-6.6,16-6.6,17.1c0,0.4-1.1,3.1-2.5,6
		c-6.4,13.6-7.9,16.9-7.9,18.1c0,0.7-0.3,1.5-0.8,1.7c-0.4,0.3-1.7,2.3-2.9,4.6c-1.1,2.3-2.9,5.5-3.9,7.2c-1,1.6-2.7,4.8-3.8,6.9
		c-1,2.2-3,5.3-4.3,7c-1.3,1.7-2.4,3.5-2.4,3.8c0,0.3-1.1,2.1-2.6,3.9c-1.4,1.8-2.6,3.5-2.6,4c0,0.3-0.6,1.2-1.3,2
		c-0.7,0.8-4.1,5.3-7.7,10c-3.5,4.8-8,10.4-10,12.5c-2,2.2-5.7,6.4-8.2,9.5c-4.6,5.5-18.4,19.3-25,25.1c-5.7,4.8-17,14.9-19.4,17.2
		c-1.2,1.2-2.5,2.2-2.9,2.2s-1.6,0.8-2.6,1.8c-1.8,1.7-24.7,18.8-27.6,20.6c-0.8,0.5-6,4-11.7,7.8s-10.5,7.1-11.1,7.3
		c-0.4,0.2-2.2,1.5-4,2.8c-1.7,1.4-3.8,2.5-4.5,2.5c-0.8,0-1.6,0.4-1.9,1c-0.3,0.4-1.5,1.2-2.4,1.7c-2,0.8-2.7,1.2-9.1,5.4
		c-2.1,1.3-4.2,2.3-4.9,2.3c-0.7,0-1.5,0.4-1.7,1c-0.3,0.4-1.5,1.2-2.4,1.7c-1,0.4-2.7,1.2-3.6,1.8c-2.2,1.3-2,1.1-18.6,9.3
		c-7.9,3.9-14.9,7.4-15.5,7.9s-1.9,1-2.6,1.3c-0.7,0.3-5,2.1-9.5,4C398.3,748.2,392.5,749.5,388.1,748.5z M395.7,707.2
		c1.3-0.7,7.4-3.6,13.6-6.5c6.2-2.9,11.8-5.6,12.5-6c0.7-0.4,4.2-2.3,7.8-4.1c3.5-1.9,7.9-4.2,9.5-5.2c1.6-1,5-2.9,7.3-4.1
		c4.8-2.6,6.2-3.4,11.4-6.7c2.1-1.3,3.9-2.3,4.1-2.3s1.6-0.7,2.9-1.6c1.3-0.9,7.6-5,14-9.2s12-8.1,12.4-8.7c0.3-0.6,1-1.1,1.6-1.1
		c0.9,0,18.1-12.7,19-14c0.3-0.3,2.4-2.2,4.8-4c14.5-10.8,44.3-40.5,57-56.9c3.5-4.5,10.9-15,12.8-18.3c0.5-0.8,1.8-2.8,3-4.4
		c4.3-6,17.9-33.2,22-44c0.9-2.2,2-4.8,2.5-6c0.6-1.2,2.9-7.9,5.2-15.1c2.3-7.1,4.8-14.3,5.4-15.8c0.7-1.6,1.2-3.5,1.2-4.1
		c0-0.8,0.6-3.2,1.2-5.4c0.7-2.2,1.9-6.1,2.6-8.7c1.2-4.4,1.9-7.1,5.2-21.6c2.7-11.9,5.9-28.3,7.8-40.2c0.7-4.2,1.9-11.2,2.6-15.5
		c0.8-4.2,1.4-9,1.4-10.5c0-1.6,0.3-4.7,0.9-6.9c0.4-2.2,1.2-8.4,1.7-13.6c0.4-5.2,1.4-15.3,2.1-22.5c1.6-16,2.9-31.2,4-45.3
		c1.5-18.3,2.9-94,2.2-117.6l-0.6-22.2l-4.1-0.5c-2.2-0.3-7.1-1-10.9-1.7c-7-1.2-15.5-2.6-31.1-5.2c-4.8-0.8-11.7-2-15.5-2.6
		c-3.8-0.7-10.8-1.8-15.5-2.6s-11.7-2-15.5-2.6c-3.8-0.7-10.8-1.8-15.5-2.6c-4.8-0.8-11.7-2-15.5-2.6c-3.8-0.7-10.8-1.8-15.5-2.6
		c-4.8-0.8-10-1.8-11.7-2.2c-1.6-0.4-5.2-1-7.8-1.3c-2.6-0.3-7.9-1-11.7-1.7c-3.8-0.7-10.8-1.8-15.5-2.6c-4.8-0.8-11.7-2-15.5-2.6
		c-11.1-1.9-21.8-3.6-31.1-5.2c-4.8-0.8-11.7-2.1-15.5-2.8c-3.8-0.8-10.6-1.4-15.1-1.4s-11.3,0.6-15.1,1.4
		c-6.5,1.2-13.9,2.5-31.5,5.4c-7.5,1.2-16.6,2.8-30.8,5.1c-4.4,0.8-11.7,2-16,2.7c-4.4,0.8-11.3,1.9-15.4,2.6
		c-4.1,0.7-11,1.8-15.3,2.6c-4.4,0.7-11.5,1.9-15.8,2.6c-4.2,0.7-11.2,1.9-15.5,2.6c-4.3,0.7-11.2,1.9-15.5,2.6
		c-8.2,1.4-18.5,3.1-32,5.3c-4.5,0.8-11.3,1.9-15.1,2.6c-3.8,0.6-10.6,1.7-15.1,2.5c-4.5,0.7-11.5,1.9-15.5,2.6
		c-4.1,0.7-9.2,1.5-11.4,1.7l-4,0.5l-0.3,6.2c-1.6,27.3-0.2,105.7,2.3,137.9c0.7,8.8,1.5,19.9,1.7,24.6c0.3,4.8,0.8,11.9,1.3,16
		c0.4,4.1,1.4,12.8,2.2,19.4c1.8,16.2,3.7,30.5,5.2,38.9c0.7,3.8,1.4,8.5,1.6,10.4c0.5,4.3,2.9,16.7,6.2,32.8
		c3.5,16.8,6,27.1,10.3,42.1c2.6,8.8,13.6,41.6,14.3,42.5c0.3,0.4,1.8,3.6,3.1,6.9c3.2,8,14,29.4,17.4,34.5c1.6,2.2,2.8,4.3,2.8,4.6
		c0,0.3,1.2,1.9,2.6,3.7c1.5,1.8,2.6,3.5,2.6,3.8c0,0.7,12.8,17.7,14.3,19.1c0.5,0.5,2.5,2.9,4.3,5.2c7.3,9.2,28.2,29.8,43.3,42.4
		c11.6,9.8,32.7,25.7,39,29.3c0.9,0.5,2.9,1.8,4.5,3c1.6,1.2,3.6,2.6,4.5,3c1.6,0.9,12,7.5,16.1,10.1c1.3,0.9,2.9,1.8,3.6,2.2
		c0.7,0.4,3.8,2.2,6.9,3.9c11,6.2,15.3,8.5,31.5,16.5c16,7.9,22.1,10.8,22.7,10.9C393.3,708.5,394.5,707.9,395.7,707.2z"/>
</g>
<g id="layer3">
	<path class="st2" d="M392.8,674.9c-0.6-1.1-0.6-548.4,0.1-549.5c0.5-0.9,6-0.4,15.9,1.4c3.5,0.6,10.4,1.8,15.1,2.6
		c4.8,0.8,11.7,1.9,15.5,2.6c3.8,0.6,10.8,1.8,15.5,2.6c4.8,0.8,11.7,1.9,15.5,2.6c3.8,0.6,10.8,1.8,15.5,2.6
		c4.8,0.8,11.7,1.9,15.5,2.6c3.8,0.6,10.6,1.7,15.1,2.5c21.8,3.5,34.6,5.7,47.5,7.9c4.1,0.7,11.1,1.9,15.5,2.6
		c9.5,1.6,19.8,3.3,30.2,5.1c4.1,0.7,9.3,1.6,11.8,1.8c2.5,0.3,4.8,1,5.3,1.6c3.4,4.2,1,94.1-3.8,148.3c-2,22.9-5,49.9-6.5,58.7
		c-0.5,2.6-1.4,8-2,12.1s-1.6,9.7-2.2,12.5c-0.6,2.9-1.6,8.3-2.3,12.1c-3.1,16-7.4,34.9-10.3,44.5c-0.6,2.2-1.7,6.4-2.6,9.5
		c-0.8,3.1-2,7-2.6,8.6c-2.5,7-3.2,9.2-3.9,11.7c-0.3,1.5-1,3.5-1.6,4.8c-0.4,1.2-1.7,4.3-2.8,6.9c-1,2.6-2.2,5.6-2.7,6.7
		c-0.4,1-1.1,2.8-1.6,3.9c-1,2.2-12.7,26.1-14.2,28.7c-5.4,9.4-16.1,24-24.7,34.1c-18.1,20.9-38.3,39.5-61.4,56.4
		c-5,3.7-9.7,7.3-10.5,7.9c-0.8,0.7-1.6,1.3-2,1.3c-0.4,0-2.2,1.2-4,2.6c-1.8,1.5-3.5,2.6-3.9,2.6c-0.3,0-2.1,1.2-3.9,2.6
		c-1.8,1.5-3.5,2.6-3.8,2.6c-0.3,0-3.2,1.6-6.4,3.7c-3.2,2.1-6.4,4.1-7.1,4.3c-0.7,0.3-2.4,1.4-3.9,2.2c-2.5,1.6-4.4,2.7-16.4,9.2
		c-6.9,3.8-25.9,13.3-26.6,13.3C393.6,675.7,393.2,675.3,392.8,674.9z"/>
</g>
<text transform="matrix(1 0 0 1 787.4945 485.2586)" class="st1 st3 st4">Credential</text>
<text transform="matrix(1 0 0 1 2157.385 378.8362)" class="st5 st6 st4">+</text>
<text transform="matrix(1 0 0 1 510.5696 292.8125)" class="st7 st6 st8">+</text>
<g>
	<path class="st5" d="M363.2,315.3c-9.1,4.2-17.1,9.9-23.8,17.1c-6.8,7.2-12.2,15.6-16.2,25.2c-4,9.6-6,19.9-6,30.9
		c0,11,2,21.3,6,30.9c4,9.6,9.4,18,16.2,25.2c6.8,7.2,14.7,12.9,23.8,17.1c9.1,4.2,18.8,6.3,29.2,6.3c0.4,0,0.8,0,1.2,0
		c0-18.1,0-37.3,0-57.7c-5.4,0-10.7,0-11.1,0c6.6-24,0,0,6.6-24c-4.1-1.7-7-5.7-7-10.4c0-6.2,5-11.2,11.2-11.2c0.1,0,0.2,0,0.3,0
		V309c-0.4,0-0.8,0-1.3,0C382,309,372.3,311.1,363.2,315.3z"/>
	<path class="st5" d="M350.1,489.6c-13.2-5.8-24.7-13.7-34.5-23.5c-9.8-9.9-17.5-21.5-23.2-34.8c-5.7-13.3-8.5-27.5-8.5-42.8
		c0-15.2,2.8-29.4,8.5-42.8c5.7-13.3,13.4-24.9,23.2-34.8c9.8-9.9,21.3-17.7,34.5-23.5c13.2-5.8,27.3-8.7,42.3-8.7
		c0.4,0,0.8,0,1.3,0V125.1l-4.8,0.2c-2.6,0.1-7.9,0.8-11.7,1.5s-10.8,1.9-15.5,2.7c-17.8,2.8-25.1,4.1-28.9,4.8
		c-2.2,0.4-6.7,1.2-10.3,1.6c-3.5,0.5-6.7,1.1-7.1,1.4s-4.8,1-9.6,1.6c-14.3,1.9-21.6,3-26.2,3.9c-7.5,1.4-18.7,3.4-27.2,4.8
		c-13.6,2.2-37.9,6.2-47.1,7.8c-3.8,0.7-10.8,1.8-15.5,2.6c-4.8,0.8-11.6,2-15.1,2.6c-3.5,0.6-8.4,1.4-10.6,1.6
		c-2.2,0.3-4.9,1-6,1.5c-1.8,1-1.8,1-1.3,37.4c1,77.6,6.5,142.7,16.7,197.7c3.5,19.5,4.8,25.2,8.6,40.3c1.2,5,2.6,10.5,3,12.1
		c1.3,5.7,2.8,10.8,3.8,13.8c0.6,1.6,2.3,7.1,4,12.1c1.6,5,3.4,10,4,11.2c0.6,1.2,1.1,2.7,1.1,3.3s0.3,1.7,0.9,2.6
		c0.4,0.8,2.2,5,4,9.2c11.9,29.4,31.3,57.5,57.2,83.2c5.9,5.8,14.1,13.4,18.2,16.8c4.1,3.5,7.9,6.7,8.3,7.2
		c1.5,1.6,24.6,18.7,32.8,24.3c11,7.3,20.1,13.2,20.6,13.2c0.3,0,2.1,1.1,4.1,2.5c5.8,3.8,13.3,7.9,33.9,18.7
		c7.6,3.9,14.3,7.1,14.7,6.9c0.5-0.1,0.7-59.7,0.8-177.9c-0.4,0-0.8,0-1.2,0C377.4,498.3,363.3,495.4,350.1,489.6z"/>
	<path class="st7" d="M427.7,318.1c10.7,6.1,19.4,14.2,26.2,24.4l26.1-19.5c-10-13.6-22.6-24.4-37.7-32.4c-14.8-7.8-31-11.8-48.7-12
		V309C406,309.2,417.3,312.2,427.7,318.1z"/>
	<path class="st7" d="M427.7,458.8c-10.4,5.9-21.7,8.9-34,9.1c0,10.5,0,20.6,0,30.3c17.7-0.2,34-4.2,48.7-12
		c15.1-8,27.6-18.8,37.7-32.4l-26.1-19.5C447.1,444.6,438.4,452.7,427.7,458.8z"/>
	<path class="st9" d="M392.4,468c-10.4,0-20.2-2.1-29.2-6.3c-9.1-4.2-17.1-9.9-23.8-17.1c-6.8-7.2-12.2-15.6-16.2-25.2
		c-4-9.6-6-19.9-6-30.9c0-11,2-21.3,6-30.9c4-9.6,9.4-18,16.2-25.2c6.8-7.2,14.7-12.9,23.8-17.1c9.1-4.2,18.8-6.3,29.2-6.3
		c0.4,0,0.8,0,1.3,0v-30.3c-0.4,0-0.8,0-1.3,0c-15,0-29.1,2.9-42.3,8.7c-13.2,5.8-24.7,13.6-34.5,23.5c-9.8,9.9-17.5,21.5-23.2,34.8
		c-5.7,13.3-8.5,27.6-8.5,42.8c0,15.2,2.8,29.5,8.5,42.8c5.7,13.3,13.4,24.9,23.2,34.8c9.8,9.9,21.3,17.8,34.5,23.5
		c13.2,5.8,27.3,8.7,42.3,8.7c0.4,0,0.8,0,1.2,0c0-9.7,0-19.8,0-30.3C393.3,468,392.9,468,392.4,468z"/>
	<path class="st7" d="M393.7,410.3c5.7,0,11.5,0,11.5,0s0,0-6.4-24.6c3.4-1.9,5.7-5.6,5.7-9.8c0-6.1-4.8-11-10.9-11.2v35.8
		C393.7,403.8,393.7,407,393.7,410.3z"/>
	<path class="st9" d="M382.2,375.9c0,4.7,2.9,8.7,7,10.4c-6.6,24,0,0-6.6,24c0.4,0,5.7,0,11.1,0c0-3.2,0-6.5,0-9.7v-35.8
		c-0.1,0-0.2,0-0.3,0C387.2,364.8,382.2,369.8,382.2,375.9z"/>
</g>
<text transform="matrix(1 0 0 1 828.3973 558.8681)" class="st1 st3 st10">Password hashing and verification made easy!</text>
</svg>
